<svg width="65" height="64" viewBox="0 0 65 64" fill="none" xmlns="http://www.w3.org/2000/svg">
<path d="M59.1667 29.3066V12.4533C59.1667 9.25331 56.5533 6.87997 53.38 7.14664H53.22C47.62 7.62664 39.1133 10.48 34.3667 13.4666L33.9133 13.76C33.14 14.24 31.86 14.24 31.0867 13.76L30.42 13.36C25.6733 10.4 17.1933 7.57331 11.5933 7.11997C8.42001 6.85331 5.83334 9.25331 5.83334 12.4266V44.64C5.83334 47.2 7.91334 49.6 10.4733 49.92L11.2467 50.0266C17.0333 50.8 25.9667 53.7333 31.0867 56.5333L31.1933 56.5866C31.9133 56.9866 33.06 56.9866 33.7533 56.5866C38.8733 53.76 47.8333 50.8 53.6467 50.0266L54.5267 49.92C57.0867 49.6 59.1667 47.2 59.1667 44.64V40.0533" stroke="#F451E4" stroke-width="1.5" stroke-linecap="round" stroke-linejoin="round"/>
<path d="M32.5 14.64V54.64" stroke="#F451E4" stroke-width="1.5" stroke-linecap="round" stroke-linejoin="round"/>
<path d="M21.1667 22.64H15.1667" stroke="#F451E4" stroke-width="1.5" stroke-linecap="round" stroke-linejoin="round"/>
<path d="M23.1667 30.64H15.1667" stroke="#F451E4" stroke-width="1.5" stroke-linecap="round" stroke-linejoin="round"/>
</svg>
