<svg width="65" height="64" viewBox="0 0 65 64" fill="none" xmlns="http://www.w3.org/2000/svg">
<path d="M11.0867 48C11.0867 56 13.7533 58.6666 21.7533 58.6666H43.0867C51.0867 58.6666 53.7533 56 53.7533 48V26.6666H11.0867V36.9066" stroke="#F451E4" stroke-width="1.5" stroke-miterlimit="10" stroke-linecap="round" stroke-linejoin="round"/>
<path d="M57.8333 18.6667V21.3334C57.8333 24.2667 56.42 26.6667 52.5 26.6667H12.5C8.41999 26.6667 7.16666 24.2667 7.16666 21.3334V18.6667C7.16666 15.7334 8.41999 13.3334 12.5 13.3334H52.5C56.42 13.3334 57.8333 15.7334 57.8333 18.6667Z" stroke="#F451E4" stroke-width="1.5" stroke-miterlimit="10" stroke-linecap="round" stroke-linejoin="round"/>
<path d="M31.54 13.3333H16.82C15.9133 12.3466 15.94 10.8266 16.9 9.86663L20.6867 6.07997C21.6733 5.0933 23.3 5.0933 24.2867 6.07997L31.54 13.3333Z" stroke="#F451E4" stroke-width="1.5" stroke-miterlimit="10" stroke-linecap="round" stroke-linejoin="round"/>
<path d="M48.1534 13.3333H33.4333L40.6867 6.07997C41.6733 5.0933 43.3 5.0933 44.2867 6.07997L48.0734 9.86663C49.0334 10.8266 49.06 12.3466 48.1534 13.3333Z" stroke="#F451E4" stroke-width="1.5" stroke-miterlimit="10" stroke-linecap="round" stroke-linejoin="round"/>
<path d="M24.34 26.6666V40.3733C24.34 42.5066 26.6867 43.76 28.4733 42.6133L30.98 40.96C31.8867 40.3733 33.0333 40.3733 33.9133 40.96L36.2867 42.56C38.0467 43.7333 40.42 42.48 40.42 40.3466V26.6666H24.34Z" stroke="#F451E4" stroke-width="1.5" stroke-miterlimit="10" stroke-linecap="round" stroke-linejoin="round"/>
</svg>
