<svg width="65" height="64" viewBox="0 0 65 64" fill="none" xmlns="http://www.w3.org/2000/svg">
<path d="M5.83334 30.8267V35.8135C5.83334 43.8135 11.1667 49.1468 19.1667 49.1468H29.8333L41.7 57.04C43.46 58.2134 45.8333 56.9602 45.8333 54.8268V49.1468C53.8333 49.1468 59.1667 43.8135 59.1667 35.8135V19.8133C59.1667 11.8133 53.8333 6.47998 45.8333 6.47998H19.1667C11.1667 6.47998 5.83334 11.8133 5.83334 19.8133" stroke="#F451E4" stroke-width="1.5" stroke-miterlimit="10" stroke-linecap="round" stroke-linejoin="round"/>
<path d="M32.5 30.2933V29.7334C32.5 27.9201 33.6201 26.9601 34.7401 26.1867C35.8334 25.4401 36.9266 24.4801 36.9266 22.7201C36.9266 20.2668 34.9533 18.2933 32.5 18.2933C30.0467 18.2933 28.0734 20.2668 28.0734 22.7201" stroke="#F451E4" stroke-width="1.5" stroke-linecap="round" stroke-linejoin="round"/>
<path d="M32.488 36.6667H32.512" stroke="#F451E4" stroke-width="1.5" stroke-linecap="round" stroke-linejoin="round"/>
</svg>
